<svg width="50" height="65" viewBox="0 0 50 65" fill="none" xmlns="http://www.w3.org/2000/svg">
<path d="M49.9871 32.476L48.3746 52.1384C47.9622 57.2258 40.3872 56.5258 40.7997 51.5259L42.0497 36.2135L36.9122 36.501C38.1747 39.0884 38.8872 41.9884 38.8872 45.0634C38.8872 50.2134 36.8747 54.9008 33.5998 58.3758L28.6873 53.4633C35.9247 45.5009 30.3248 32.5635 19.4374 32.5635C16.1999 32.5635 13.2499 33.801 11.0374 35.8135L6.12496 30.901C8.87494 28.3135 12.3874 26.5135 16.2999 25.876L25.7123 15.1636L20.3874 12.0636L13.9374 17.8136C10.1874 21.1636 5.11246 15.5011 8.87494 12.1386L17.3749 4.55119C18.5999 3.4512 20.3874 3.2762 21.8123 4.10119C21.8123 4.10119 39.2247 14.2136 39.2497 14.2386C41.2747 15.5011 41.8372 18.7386 40.0122 20.8136L32.7123 29.126L45.9747 28.3885C48.2871 28.251 50.1746 30.1885 49.9871 32.476ZM41.8747 13.2261C45.3872 13.2261 48.2371 10.3762 48.2371 6.86368C48.2371 3.3512 45.3872 0.501221 41.8747 0.501221C38.3622 0.501221 35.5122 3.3512 35.5122 6.86368C35.5122 10.3762 38.3622 13.2261 41.8747 13.2261V13.2261ZM19.4499 57.5633C9.37493 57.5633 3.52497 46.2384 9.11243 38.051L4.14997 33.0885C1.54999 36.376 0 40.5384 0 45.0509C0 61.3883 18.8374 70.2257 31.4248 60.3633L26.4623 55.4008C24.4623 56.7633 22.0498 57.5633 19.4499 57.5633Z" fill="#EBEBEB"/>
</svg>
