<svg width="94" height="45" viewBox="0 0 94 45" fill="none" xmlns="http://www.w3.org/2000/svg">
<path d="M28.1818 2.04541H16.7273C16.0763 2.04541 15.4519 2.30401 14.9916 2.76433C14.5313 3.22465 14.2727 3.84897 14.2727 4.49996V40.5C14.2727 40.8223 14.3362 41.1415 14.4595 41.4393C14.5829 41.7371 14.7637 42.0077 14.9916 42.2356C15.2196 42.4635 15.4901 42.6443 15.7879 42.7677C16.0857 42.891 16.4049 42.9545 16.7273 42.9545H28.1818C28.5041 42.9545 28.8233 42.891 29.1211 42.7677C29.4189 42.6443 29.6895 42.4635 29.9174 42.2356C30.1453 42.0077 30.3261 41.7371 30.4495 41.4393C30.5729 41.1415 30.6363 40.8223 30.6363 40.5V4.49996C30.6363 3.84897 30.3777 3.22465 29.9174 2.76433C29.4571 2.30401 28.8328 2.04541 28.1818 2.04541Z" fill="#EBEBEB" stroke="#EBEBEB" stroke-width="4" stroke-linecap="round" stroke-linejoin="round"/>
<path d="M77.2726 2.04541H65.8181C65.1671 2.04541 64.5428 2.30401 64.0824 2.76433C63.6221 3.22465 63.3635 3.84897 63.3635 4.49996V40.5C63.3635 40.8223 63.427 41.1415 63.5504 41.4393C63.6737 41.7371 63.8545 42.0077 64.0824 42.2356C64.3104 42.4635 64.581 42.6443 64.8788 42.7677C65.1766 42.891 65.4957 42.9545 65.8181 42.9545H77.2726C77.5949 42.9545 77.9141 42.891 78.2119 42.7677C78.5097 42.6443 78.7803 42.4635 79.0082 42.2356C79.2362 42.0077 79.417 41.7371 79.5403 41.4393C79.6637 41.1415 79.7272 40.8223 79.7272 40.5V4.49996C79.7272 3.84897 79.4686 3.22465 79.0082 2.76433C78.5479 2.30401 77.9236 2.04541 77.2726 2.04541Z" fill="#EBEBEB" stroke="#EBEBEB" stroke-width="4" stroke-linecap="round" stroke-linejoin="round"/>
<path d="M2 32.3184V12.6821C2 12.0311 2.2586 11.4068 2.71892 10.9465C3.17924 10.4861 3.80356 10.2275 4.45455 10.2275H11.8182C12.4692 10.2275 13.0935 10.4861 13.5538 10.9465C14.0141 11.4068 14.2727 12.0311 14.2727 12.6821V32.3184C14.2727 32.9694 14.0141 33.5938 13.5538 34.0541C13.0935 34.5144 12.4692 34.773 11.8182 34.773H4.45455C3.80356 34.773 3.17924 34.5144 2.71892 34.0541C2.2586 33.5938 2 32.9694 2 32.3184Z" fill="#EBEBEB" stroke="#EBEBEB" stroke-width="4" stroke-linecap="round" stroke-linejoin="round"/>
<path d="M92 32.3184V12.6821C92 12.0311 91.7414 11.4068 91.2811 10.9465C90.8208 10.4861 90.1965 10.2275 89.5455 10.2275H82.1818C81.5309 10.2275 80.9065 10.4861 80.4462 10.9465C79.9859 11.4068 79.7273 12.0311 79.7273 12.6821V32.3184C79.7273 32.9694 79.9859 33.5938 80.4462 34.0541C80.9065 34.5144 81.5309 34.773 82.1818 34.773H89.5455C90.1965 34.773 90.8208 34.5144 91.2811 34.0541C91.7414 33.5938 92 32.9694 92 32.3184Z" fill="#EBEBEB" stroke="#EBEBEB" stroke-width="4" stroke-linecap="round" stroke-linejoin="round"/>
<path d="M30.6365 22.4998H63.3637H30.6365Z" fill="#EBEBEB"/>
<path d="M30.6365 22.4998H63.3637" stroke="#EBEBEB" stroke-width="4" stroke-linecap="round" stroke-linejoin="round"/>
</svg>
