<svg width="31" height="31" viewBox="0 0 31 31" fill="none" xmlns="http://www.w3.org/2000/svg">
<path d="M21.3469 7.75012C19.6462 7.75012 18.072 8.02378 16.6813 8.52874L17.4326 1.07492C17.498 0.44282 16.9416 -0.0712156 16.3071 0.00809969C11.4816 0.61356 7.75012 4.70102 7.75012 9.65308C7.75012 11.3538 8.02378 12.928 8.52874 14.3188L1.07492 13.5674C0.44282 13.502 -0.0712156 14.0584 0.00809969 14.6929C0.61356 19.5184 4.70102 23.2499 9.65308 23.2499C11.3538 23.2499 12.928 22.9762 14.3187 22.4713L13.5674 29.9251C13.5038 30.5566 14.0584 31.0712 14.6929 30.9919C19.5184 30.3864 23.2499 26.299 23.2499 21.3469C23.2499 19.6462 22.9762 18.072 22.4713 16.6813L29.9251 17.4326C30.5572 17.4962 31.0712 16.9416 30.9919 16.3071C30.3864 11.4816 26.299 7.75012 21.3469 7.75012ZM15.5 17.4375C15.1168 17.4375 14.7422 17.3238 14.4236 17.111C14.105 16.8981 13.8567 16.5955 13.71 16.2414C13.5634 15.8874 13.525 15.4979 13.5998 15.122C13.6745 14.7462 13.859 14.401 14.13 14.13C14.401 13.859 14.7462 13.6745 15.122 13.5998C15.4979 13.525 15.8874 13.5634 16.2414 13.71C16.5955 13.8567 16.8981 14.105 17.1109 14.4236C17.3238 14.7422 17.4375 15.1168 17.4375 15.5C17.4375 16.0139 17.2333 16.5067 16.87 16.87C16.5067 17.2333 16.0139 17.4375 15.5 17.4375Z" fill="url(#paint0_linear_9_45)"/>
<defs>
<linearGradient id="paint0_linear_9_45" x1="15.5" y1="0" x2="15.5" y2="31" gradientUnits="userSpaceOnUse">
<stop stop-color="#F54E8A"/>
<stop offset="1" stop-color="#C4272F"/>
</linearGradient>
</defs>
</svg>
