<svg width="22" height="22" viewBox="0 0 22 22" fill="none" xmlns="http://www.w3.org/2000/svg">
<path d="M21.0938 15.6875H0.78125C0.57405 15.6875 0.375336 15.6052 0.228823 15.4587C0.08231 15.3122 0 15.1135 0 14.9062L0 13.3438C0 13.1365 0.08231 12.9378 0.228823 12.7913C0.375336 12.6448 0.57405 12.5625 0.78125 12.5625H21.0938C21.301 12.5625 21.4997 12.6448 21.6462 12.7913C21.7927 12.9378 21.875 13.1365 21.875 13.3438V14.9062C21.875 15.1135 21.7927 15.3122 21.6462 15.4587C21.4997 15.6052 21.301 15.6875 21.0938 15.6875ZM21.0938 3.1875H0.78125C0.57405 3.1875 0.375336 3.10519 0.228823 2.95868C0.08231 2.81216 0 2.61345 0 2.40625L0 0.84375C0 0.636549 0.08231 0.437836 0.228823 0.291323C0.375336 0.14481 0.57405 0.0625 0.78125 0.0625H21.0938C21.301 0.0625 21.4997 0.14481 21.6462 0.291323C21.7927 0.437836 21.875 0.636549 21.875 0.84375V2.40625C21.875 2.61345 21.7927 2.81216 21.6462 2.95868C21.4997 3.10519 21.301 3.1875 21.0938 3.1875ZM5.27832 18.8125H16.5972C16.6747 18.8125 16.7515 18.8278 16.8232 18.8575C16.8948 18.8872 16.9599 18.9307 17.0148 18.9856C17.0696 19.0404 17.1131 19.1056 17.1427 19.1773C17.1723 19.2489 17.1876 19.3258 17.1875 19.4033V21.3472C17.1875 21.4247 17.1722 21.5015 17.1426 21.5731C17.1129 21.6447 17.0694 21.7098 17.0146 21.7646C16.9598 21.8194 16.8947 21.8629 16.8231 21.8926C16.7515 21.9222 16.6747 21.9375 16.5972 21.9375H5.27832C5.20076 21.9376 5.12394 21.9223 5.05226 21.8927C4.98058 21.8631 4.91545 21.8196 4.86058 21.7648C4.80571 21.7099 4.76218 21.6448 4.73248 21.5732C4.70279 21.5015 4.6875 21.4247 4.6875 21.3472V19.4033C4.6875 19.2466 4.74975 19.0963 4.86055 18.9855C4.97135 18.8747 5.12162 18.8125 5.27832 18.8125ZM16.5972 6.3125C16.6747 6.3125 16.7515 6.32779 16.8232 6.35748C16.8948 6.38718 16.9599 6.43071 17.0148 6.48558C17.0696 6.54045 17.1131 6.60558 17.1427 6.67726C17.1723 6.74894 17.1876 6.82576 17.1875 6.90332V8.84717C17.1875 9.00373 17.1253 9.15389 17.0146 9.2646C16.9039 9.3753 16.7537 9.4375 16.5972 9.4375H5.27832C5.20076 9.43756 5.12394 9.42234 5.05226 9.3927C4.98058 9.36307 4.91545 9.31959 4.86058 9.26477C4.80571 9.20994 4.76218 9.14485 4.73248 9.07319C4.70279 9.00154 4.6875 8.92473 4.6875 8.84717V6.90332C4.6875 6.82573 4.70278 6.74891 4.73247 6.67722C4.76217 6.60554 4.80568 6.54041 4.86055 6.48555C4.91541 6.43068 4.98054 6.38717 5.05222 6.35747C5.1239 6.32778 5.20073 6.3125 5.27832 6.3125H16.5972Z" fill="#737373"/>
</svg>
