<svg width="60" height="61" viewBox="0 0 60 61" fill="none" xmlns="http://www.w3.org/2000/svg">
<path d="M18.75 6.125V11.75H1.875C1.37772 11.75 0.900806 11.9475 0.549175 12.2992C0.197544 12.6508 0 13.1277 0 13.625V51.125C0 53.6114 0.98772 55.996 2.74587 57.7541C4.50403 59.5123 6.8886 60.5 9.375 60.5H50.625C53.1114 60.5 55.496 59.5123 57.2541 57.7541C59.0123 55.996 60 53.6114 60 51.125V13.625C60 13.1277 59.8025 12.6508 59.4508 12.2992C59.0992 11.9475 58.6223 11.75 58.125 11.75H41.25V6.125C41.25 4.63316 40.6574 3.20242 39.6025 2.14752C38.5476 1.09263 37.1168 0.5 35.625 0.5H24.375C22.8832 0.5 21.4524 1.09263 20.3975 2.14752C19.3426 3.20242 18.75 4.63316 18.75 6.125ZM24.375 4.25H35.625C36.1223 4.25 36.5992 4.44754 36.9508 4.79918C37.3025 5.15081 37.5 5.62772 37.5 6.125V11.75H22.5V6.125C22.5 5.62772 22.6975 5.15081 23.0492 4.79918C23.4008 4.44754 23.8777 4.25 24.375 4.25ZM16.875 34.25V23H28.125V34.25H16.875ZM16.875 49.25V38H28.125V49.25H16.875ZM43.125 34.25H31.875V23H43.125V34.25ZM31.875 49.25V38H43.125V49.25H31.875Z" fill="#EBEBEB"/>
</svg>
